<?xml version="1.0" encoding="UTF-8"?>
<svg id="Warstwa_2" data-name="Warstwa 2" xmlns="http://www.w3.org/2000/svg" xmlns:xlink="http://www.w3.org/1999/xlink" viewBox="0 0 49.2 101.7">
  <defs>
    <style>
      .cls-1 {
        fill: #fff;
      }

      .cls-2 {
        fill: url(#Gradient_bez_nazwy);
      }
    </style>
    <linearGradient id="Gradient_bez_nazwy" data-name="Gradient bez nazwy" x1="4.7" y1="41.35" x2="47.8" y2="41.35" gradientTransform="translate(0 92.2) scale(1 -1)" gradientUnits="userSpaceOnUse">
      <stop offset=".01" stop-color="#ffc222"/>
      <stop offset=".12" stop-color="#ffc71f"/>
      <stop offset=".55" stop-color="#ffd718"/>
      <stop offset=".89" stop-color="#ffdd15"/>
    </linearGradient>
  </defs>
  <g id="Layer_1" data-name="Layer 1">
    <path class="cls-1" d="m37.7,70.2c-.2-6.4-.4-12.9-.6-19.3-6.3,1.4-12.6,2.8-19,4.2-1.6,5.1-3.3,10.1-4.9,15.2H0C10.4,46.9,20.8,23.5,31.1.1h14.6l3.5,70.2h-11.5v-.1Zm-1.3-60.1c-6.1,15-12.1,29.9-18.2,44.9,6.4-1.2,12.9-2.3,19.3-3.5-.4-13.8-.7-27.6-1.1-41.4Z"/>
    <path class="cls-2" d="m40.5,0c-6.1,15.4-12.3,30.7-18.4,46.1,8.6-1.9,17.1-3.8,25.7-5.7-11.9,20.4-23.8,40.9-35.8,61.3,6-16.1,12-32.1,18-48.2-8.4,2.1-16.9,4.2-25.3,6.3C16.6,39.8,28.5,19.9,40.5,0Z"/>
  </g>
</svg>